<mxfile host="Electron" agent="Mozilla/5.0 (Windows NT 10.0; Win64; x64) AppleWebKit/537.36 (KHTML, like Gecko) draw.io/24.7.8 Chrome/128.0.6613.36 Electron/32.0.1 Safari/537.36" version="24.7.8">
  <diagram name="Employee Use Case Diagram" id="jJyQ5MaBRiq2gU1whue2">
    <mxGraphModel dx="1727" dy="1010" grid="1" gridSize="10" guides="1" tooltips="1" connect="1" arrows="1" fold="1" page="1" pageScale="1" pageWidth="1169" pageHeight="827" math="0" shadow="0">
      <root>
        <mxCell id="0" />
        <mxCell id="1" parent="0" />
        <mxCell id="0tM99ScF6qjL7Z9JjTlz-14" value="Employee" style="shape=umlActor;verticalLabelPosition=bottom;verticalAlign=top;fontSize=20;" parent="1" vertex="1">
          <mxGeometry x="285" y="290" width="75" height="120" as="geometry" />
        </mxCell>
        <mxCell id="0tM99ScF6qjL7Z9JjTlz-15" value="&lt;font style=&quot;font-size: 20px;&quot;&gt;Login&lt;/font&gt;" style="ellipse;whiteSpace=wrap;html=1;" parent="1" vertex="1">
          <mxGeometry x="620" y="110" width="140" height="60" as="geometry" />
        </mxCell>
        <mxCell id="0tM99ScF6qjL7Z9JjTlz-16" value="&lt;font style=&quot;font-size: 20px;&quot;&gt;View Profile&lt;/font&gt;" style="ellipse;whiteSpace=wrap;html=1;" parent="1" vertex="1">
          <mxGeometry x="620" y="220" width="140" height="60" as="geometry" />
        </mxCell>
        <mxCell id="0tM99ScF6qjL7Z9JjTlz-17" value="&lt;font style=&quot;font-size: 20px;&quot;&gt;Take&amp;nbsp;&lt;/font&gt;&lt;div&gt;&lt;font style=&quot;font-size: 20px;&quot;&gt;Attendance&lt;/font&gt;&lt;/div&gt;" style="ellipse;whiteSpace=wrap;html=1;" parent="1" vertex="1">
          <mxGeometry x="615" y="320" width="150" height="80" as="geometry" />
        </mxCell>
        <mxCell id="0tM99ScF6qjL7Z9JjTlz-18" value="&lt;font style=&quot;font-size: 20px;&quot;&gt;Enter Results&lt;/font&gt;" style="ellipse;whiteSpace=wrap;html=1;" parent="1" vertex="1">
          <mxGeometry x="620" y="440" width="150" height="70" as="geometry" />
        </mxCell>
        <mxCell id="0tM99ScF6qjL7Z9JjTlz-19" value="&lt;font style=&quot;font-size: 20px;&quot;&gt;Send Messages&lt;/font&gt;" style="ellipse;whiteSpace=wrap;html=1;" parent="1" vertex="1">
          <mxGeometry x="620" y="540" width="150" height="70" as="geometry" />
        </mxCell>
        <mxCell id="0tM99ScF6qjL7Z9JjTlz-20" value="&lt;font style=&quot;font-size: 20px;&quot;&gt;Change Password&lt;/font&gt;" style="ellipse;whiteSpace=wrap;html=1;" parent="1" vertex="1">
          <mxGeometry x="620" y="660" width="160" height="70" as="geometry" />
        </mxCell>
        <mxCell id="0tM99ScF6qjL7Z9JjTlz-21" style="endArrow=none;entryX=0.006;entryY=0.63;entryDx=0;entryDy=0;entryPerimeter=0;" parent="1" target="0tM99ScF6qjL7Z9JjTlz-15" edge="1">
          <mxGeometry relative="1" as="geometry">
            <mxPoint x="370" y="360" as="sourcePoint" />
          </mxGeometry>
        </mxCell>
        <mxCell id="0tM99ScF6qjL7Z9JjTlz-22" style="endArrow=none;entryX=0;entryY=0.5;entryDx=0;entryDy=0;" parent="1" target="0tM99ScF6qjL7Z9JjTlz-16" edge="1">
          <mxGeometry relative="1" as="geometry">
            <mxPoint x="370" y="360" as="sourcePoint" />
            <Array as="points" />
          </mxGeometry>
        </mxCell>
        <mxCell id="0tM99ScF6qjL7Z9JjTlz-23" style="endArrow=none;" parent="1" target="0tM99ScF6qjL7Z9JjTlz-17" edge="1">
          <mxGeometry relative="1" as="geometry">
            <mxPoint x="370" y="360" as="sourcePoint" />
          </mxGeometry>
        </mxCell>
        <mxCell id="0tM99ScF6qjL7Z9JjTlz-24" style="endArrow=none;entryX=0;entryY=0.5;entryDx=0;entryDy=0;" parent="1" target="0tM99ScF6qjL7Z9JjTlz-18" edge="1">
          <mxGeometry relative="1" as="geometry">
            <mxPoint x="370" y="360" as="sourcePoint" />
          </mxGeometry>
        </mxCell>
        <mxCell id="0tM99ScF6qjL7Z9JjTlz-25" style="endArrow=none;entryX=0;entryY=0.5;entryDx=0;entryDy=0;" parent="1" target="0tM99ScF6qjL7Z9JjTlz-19" edge="1">
          <mxGeometry relative="1" as="geometry">
            <mxPoint x="370" y="360" as="sourcePoint" />
          </mxGeometry>
        </mxCell>
        <mxCell id="0tM99ScF6qjL7Z9JjTlz-26" style="endArrow=none;entryX=0;entryY=0.5;entryDx=0;entryDy=0;" parent="1" target="0tM99ScF6qjL7Z9JjTlz-20" edge="1">
          <mxGeometry relative="1" as="geometry">
            <mxPoint x="370" y="360" as="sourcePoint" />
          </mxGeometry>
        </mxCell>
      </root>
    </mxGraphModel>
  </diagram>
</mxfile>
